<svg width="100" height="101" viewBox="0 0 100 101" fill="none" xmlns="http://www.w3.org/2000/svg">
<path fill-rule="evenodd" clip-rule="evenodd" d="M46.1601 57.3498C45.2745 56.4915 44.2626 55.6755 43.1245 54.9018C41.8932 54.0364 40.5101 53.3406 38.9753 52.8145C37.4572 52.2715 35.7874 52 33.9658 52C32.0261 52 30.2045 52.3648 28.501 53.0945C27.3489 53.5814 26.2913 54.1988 25.3281 54.9469V62.256H26.6451C26.7117 62.128 26.7822 62.0015 26.8565 61.8764C27.5986 60.6376 28.5853 59.6533 29.8166 58.9236C31.0647 58.177 32.4478 57.8036 33.9658 57.8036C35.6356 57.8036 37.1705 58.1855 38.5704 58.9491C39.9873 59.7127 41.2523 60.6545 42.3655 61.7745C42.5368 61.9362 42.7021 62.0967 42.8614 62.256H46.1601V57.3498ZM53.3601 56.8647C54.6241 55.7277 56.112 54.6831 57.8239 53.7309C59.9154 52.577 62.3526 52 65.1356 52C67.6994 52 70.027 52.6279 72.1185 53.8836C73.0565 54.4348 73.9077 55.0733 74.6721 55.7991V62.256H72.3348C72.2666 62.128 72.1945 62.0015 72.1185 61.8764C71.3932 60.6376 70.4149 59.6533 69.1837 58.9236C67.9692 58.177 66.6199 57.8036 65.1356 57.8036C63.9887 57.8036 62.9092 57.9818 61.8972 58.3382C60.8852 58.6776 59.9407 59.1527 59.0636 59.7636C58.1865 60.3576 57.3769 61.0279 56.6348 61.7745C56.4649 61.9359 56.3004 62.0964 56.1411 62.256H53.3601V56.8647ZM46.1601 68.496H43.9629C43.4861 69.0572 42.9537 69.6337 42.3655 70.2255C41.2017 71.3455 39.9282 72.2873 38.5451 73.0509C37.1621 73.8145 35.6356 74.1964 33.9658 74.1964C32.4478 74.1964 31.0647 73.8315 29.8166 73.1018C28.5853 72.3552 27.5986 71.3624 26.8565 70.1236C26.5565 69.6043 26.3186 69.0618 26.1427 68.496H25.3281V77.0321C25.8245 77.4236 26.3508 77.7851 26.9071 78.1164C29.0154 79.3721 31.3683 80 33.9658 80C35.7874 80 37.4572 79.737 38.9753 79.2109C40.5101 78.6679 41.8932 77.9806 43.1245 77.1491C44.2626 76.3754 45.2745 75.5735 46.1601 74.7434V68.496ZM53.3601 75.2164V68.496H55.0374C55.5141 69.0572 56.0466 69.6337 56.6348 70.2255C57.7986 71.3455 59.072 72.2873 60.4551 73.0509C61.855 73.8145 63.4152 74.1964 65.1356 74.1964C66.6199 74.1964 67.9692 73.8315 69.1837 73.1018C70.4149 72.3552 71.3932 71.3624 72.1185 70.1236C72.4254 69.6043 72.6688 69.0618 72.8488 68.496H74.6721V76.2012C73.4708 77.3445 72.0883 78.2544 70.5246 78.9309C68.8548 79.6436 67.0584 80 65.1356 80C63.2803 80 61.5767 79.737 60.025 79.2109C58.4901 78.6679 57.0986 77.9806 55.8505 77.1491C54.9424 76.5233 54.1123 75.8791 53.3601 75.2164Z" fill="url(#paint0_radial_574_20)"/>
<path d="M18.3202 42.096H81.9682V94.032H74.6722V48.816H25.3282V94.032H18.3202V42.096ZM46.1602 28.272H53.3602V87.6H46.1602V28.272ZM21.3922 62.256H79.0882V68.496H21.3922V62.256ZM21.2962 82.8H79.2802V89.616H21.2962V82.8ZM45.9682 6H53.5522V21.456H45.9682V6ZM10.1602 16.944H89.7442V38.544H82.3522V23.664H17.2642V38.544H10.1602V16.944Z" fill="#1E1E1E"/>
<defs>
<radialGradient id="paint0_radial_574_20" cx="0" cy="0" r="1" gradientUnits="userSpaceOnUse" gradientTransform="translate(49.582 65.5) rotate(0.56819) scale(50.4205 127.026)">
<stop offset="0.0181793"/>
<stop offset="1" stop-color="#BEBEBE"/>
</radialGradient>
</defs>
</svg>
